<?xml version="1.0" encoding="UTF-8"?>
<svg viewBox="0 0 668.13 692.11" xmlns="http://www.w3.org/2000/svg" xmlns:xlink="http://www.w3.org/1999/xlink">
 <defs>
  <filter id="g">
   <feGaussianBlur stdDeviation="0.150945"/>
  </filter>
  <filter id="aj">
   <feGaussianBlur stdDeviation="0.083783"/>
  </filter>
  <filter id="am">
   <feGaussianBlur stdDeviation="0.079515"/>
  </filter>
  <filter id="ag">
   <feGaussianBlur stdDeviation="0.149113"/>
  </filter>
  <filter id="ak" x="-.059726" y="-.13305" width="1.1195" height="1.2661">
   <feGaussianBlur stdDeviation="2.386165"/>
  </filter>
  <filter id="ao">
   <feGaussianBlur stdDeviation="0.146029"/>
  </filter>
  <filter id="an">
   <feGaussianBlur stdDeviation="0.286652"/>
  </filter>
  <filter id="ap">
   <feGaussianBlur stdDeviation="0.190964"/>
  </filter>
  <filter id="aq" x="-.72679" y="-.024362" width="2.4536" height="1.0487">
   <feGaussianBlur stdDeviation="0.157191"/>
  </filter>
  <filter id="ar">
   <feGaussianBlur stdDeviation="0.291436"/>
  </filter>
  <filter id="f">
   <feGaussianBlur stdDeviation="0.180019"/>
  </filter>
  <filter id="al" x="-.02387" y="-.10043" width="1.0477" height="1.2009">
   <feGaussianBlur stdDeviation="0.139889"/>
  </filter>
  <filter id="e">
   <feGaussianBlur stdDeviation="0.069505"/>
  </filter>
  <filter id="ah">
   <feGaussianBlur stdDeviation="0.052773"/>
  </filter>
  <filter id="af">
   <feGaussianBlur stdDeviation="0.080261"/>
  </filter>
  <filter id="ai">
   <feGaussianBlur stdDeviation="0.104926"/>
  </filter>
  <linearGradient id="ac" x1=".55654" x2=".56297" y1=".59565" y2="1.1147" xlink:href="#d"/>
  <linearGradient id="o" x1=".73526" x2="1.1993" y1=".17971" y2="1.0669">
   <stop stop-color="#e6e6e6" offset="0"/>
   <stop stop-color="#666" offset="1"/>
  </linearGradient>
  <linearGradient id="p" x1=".49999" x2=".6797" y1="1.5311" y2=".5">
   <stop offset="0"/>
   <stop offset="1"/>
  </linearGradient>
  <linearGradient id="n" x1=".22662" x2=".31158" y1="1.0237" y2=".37577">
   <stop stop-color="#fff" offset="0"/>
   <stop stop-color="#e6e6e6" offset="1"/>
  </linearGradient>
  <linearGradient id="ab" x1=".49205" x2=".49205" y1="-.25405" y2=".70811" xlink:href="#c"/>
  <linearGradient id="ae" x1=".59069" x2=".59069" y1=".70052" y2="-.21828" xlink:href="#d"/>
  <linearGradient id="ad" x1=".5" x2=".53658" y1=".74746" y2=".35484" xlink:href="#b"/>
  <linearGradient id="i" x1=".49623" x2=".49623" y1="-.21548" y2=".71709" xlink:href="#c"/>
  <linearGradient id="aa" x1=".23115" x2=".821" y1="-.23756" y2=".82748">
   <stop stop-color="#b3b3b3" offset="0"/>
   <stop stop-color="#fff" offset="1"/>
  </linearGradient>
  <linearGradient id="t" x1=".31681" x2=".57608" y1="-.33142" y2=".49363" xlink:href="#a"/>
  <linearGradient id="s" x1=".36128" x2=".50001" y1="-.12622" y2="1.0687">
   <stop stop-color="#fff" offset="0"/>
   <stop stop-color="#fff" offset="1"/>
  </linearGradient>
  <linearGradient id="u" x1="-.044237" x2=".66088" y1=".41967" y2=".10092" xlink:href="#a"/>
  <linearGradient id="v" x1="1.091" x2=".40115" y1=".11242" y2=".94447">
   <stop stop-color="#ccc" offset="0"/>
   <stop stop-color="#fff" offset="1"/>
  </linearGradient>
  <linearGradient id="w" x1=".69958" x2="-.13304" y1=".28624" y2="1.121">
   <stop stop-color="#333" offset="0"/>
   <stop stop-color="#ccc" offset="1"/>
  </linearGradient>
  <linearGradient id="z" x1=".5" x2=".34643" y1="1.0866" y2=".25984">
   <stop stop-color="#7f7f7f" offset="0"/>
   <stop offset="1"/>
  </linearGradient>
  <linearGradient id="r" x1=".15491" x2=".61785" y1=".34163" y2=".34163">
   <stop stop-color="#ccc" offset="0"/>
   <stop stop-color="#191919" offset="1"/>
  </linearGradient>
  <linearGradient id="y" x1=".86667" x2=".26667" y1=".89908" y2=".2477">
   <stop stop-color="#333" offset="0"/>
   <stop stop-color="#fff" offset="1"/>
  </linearGradient>
  <linearGradient id="x" x1=".9141" x2=".14505" y1="1.243" y2="-.12269">
   <stop offset="0"/>
   <stop offset="1"/>
  </linearGradient>
  <linearGradient id="q" x1=".69849" x2=".29709" y1=".28576" y2=".76866">
   <stop stop-color="#b3b3b3" offset="0"/>
   <stop stop-color="#fff" offset="1"/>
  </linearGradient>
  <linearGradient id="b">
   <stop stop-color="#fff" offset="0"/>
   <stop stop-color="#4d4d4d" offset="1"/>
  </linearGradient>
  <linearGradient id="a">
   <stop offset="0"/>
   <stop offset="1"/>
  </linearGradient>
  <linearGradient id="h" x1=".6119" x2=".56712" y1=".68916" y2=".20591" xlink:href="#b"/>
  <linearGradient id="d">
   <stop stop-color="#fff" offset="0"/>
   <stop stop-color="#fff" offset="1"/>
  </linearGradient>
  <linearGradient id="c">
   <stop stop-color="#4d4d4d" offset="0"/>
   <stop stop-color="#4d4d4d" offset="1"/>
  </linearGradient>
  <radialGradient id="m" cx="985.76" cy="238.35" r="11.035" gradientTransform="matrix(1.1641 -1.9754 2.046 1.2058 -614.23 1863.9)" gradientUnits="userSpaceOnUse">
   <stop stop-color="#fff" offset="0"/>
   <stop stop-color="#fff" offset="1"/>
  </radialGradient>
  <radialGradient id="j" cx="1006.3" cy="164.89" r="5.4729" gradientTransform="matrix(15.657 27.812 -42.83 24.111 -8504.3 -31809)" gradientUnits="userSpaceOnUse">
   <stop stop-color="#333" offset="0"/>
   <stop stop-color="#efefef" offset="1"/>
  </radialGradient>
  <radialGradient id="k" cx="990.44" cy="209.14" r="5.838" gradientTransform="matrix(-28.792 -35.184 33.772 -27.637 21787 40907)" gradientUnits="userSpaceOnUse">
   <stop stop-color="#fff" offset="0"/>
   <stop stop-color="#b3b3b3" offset="1"/>
  </radialGradient>
  <radialGradient id="l" cx="999.93" cy="205.93" r="2.8655" gradientTransform="matrix(55.986 25.92 -51.367 110.96 -45063 -48503)" gradientUnits="userSpaceOnUse">
   <stop stop-color="#fff" offset="0"/>
   <stop offset="1"/>
  </radialGradient>
 </defs>
 <g>
  <g fill-rule="evenodd">
   <path d="m-3e-4 544.19l370.64 147.92 297.49-210.59-370.64-97.775-297.49 160.45z" filter="url(#ak)" opacity=".756"/>
   <path d="m18.633 250.45v277.03l354.8 128.85 273.95-183.15v-263.18l-281.65 149.29-347.11-108.84z" fill="#f4c3f4" stroke-width=".2"/>
   <path d="m21.562 521.86l349.04 130.71v-270.04l-349.04-106.29v245.62z" fill="url(#m)" filter="url(#an)" opacity=".525"/>
  </g>
  <g stroke-width=".2">
   <rect transform="matrix(18.002 0 0 18.002 -17663 -3520.4)" x="1001.6" y="215.88" width=".43929" height="15.805" fill="url(#ae)" filter="url(#aq)" opacity=".522"/>
   <path d="m299.28 102.04l355.65 56.072-0.8746 95.519-279.88 141.64-360.75-110.9 0.5877-97.648 285.26-84.682z" fill="#f2bff2"/>
  </g>
  <g fill-rule="evenodd">
   <path d="m15.816 214.48l1.4364 68.945 350.47 109.16 1.4383-80.436-353.35-97.673z" fill="url(#ad)" filter="url(#f)" opacity=".5"/>
   <path d="m18.405 189.52l353.81 93.955 278.16-121.68-0.3552 7.2269-273.7 121.3-1.3543 98.527h-8.2098l-0.0145-98.527-347.93-92.466-0.4122-8.3307z" fill="url(#ac)" filter="url(#ar)"/>
   <g stroke-width=".2">
    <path d="m442.83 137.35l-289.69 91.287-3.9317 341.83 74.01 29.604 2.8737-350.29 294.84-111.97-78.101-0.4641z" filter="url(#ap)"/>
    <path d="m446.91 125.33l-296.48 97.896-4.4141 351.7 73.66 26.464 3.7056-357.02 297.45-107.8-73.928-11.242z" fill="url(#n)"/>
   </g>
   <path d="m656.97 178.87l-5.6721 74.259-281.62 140.34-1.4383-80.087 288.73-134.52z" fill="url(#h)" filter="url(#f)" opacity=".5"/>
   <g stroke-width=".2">
    <path d="m148.86 147.4l343.54 88.048 0.6564 338.85 66.86-44.554-4.0812-324.95-340.49-75.132-66.479 17.745z" filter="url(#ao)"/>
    <path d="m147.95 146.7l347.16 86.036-1.3111 343.43 65.879-44.226-1.1324-329.87-342.1-76.339-68.492 20.964z" fill="url(#o)"/>
   </g>
   <path d="m223.79 54.978s3.4494 28.5 23.26 54.729c9.4007 12.449 45.835 33.522 45.835 33.522l19.84 23.944s-20.524 6.8411-30.786 5.473c-10.261-1.3682-61.166-16.138-80.322-27.084s-53.361-49.525-55.414-58.419c-2.0512-8.8935-11.501-32.019-3.2912-47.07 8.2082-15.051 24.096-22.038 28.885-22.722 4.7889-0.68417 49.94 22.576 49.94 22.576l2.0528 15.051z" fill="url(#j)"/>
   <path d="m153.72 228.01l65.765 16.172-4.3129 183.28-63.609-56.062 2.1574-143.39z" fill="url(#ab)" filter="url(#g)" opacity=".591"/>
   <path d="m148.41 533.97l-1.183 39.963 71.34 25.754 0.5915-44.107-70.749-21.61z" fill="url(#p)"/>
   <path d="m557.49 209.31l-53.165 23.88 2.2628 146.57 52.688-46.437-1.7854-124.01z" fill="url(#i)" filter="url(#g)" opacity=".674"/>
   <g stroke-width=".2">
    <g transform="matrix(15.742 1.5274 -1.5274 15.742 -15388 -3975.6)">
     <path d="m1013 165.93s1.9083-0.14137 2.191 0.98952c0.28272 1.1309-0.63611 2.4738 1.767 4.6649 0.70685-0.35341 0.77753-1.0602 0.77753-1.0602l1.8377 0.7775s-1.4843-2.1911-1.4843-3.1099c0-0.91884 0.21204-2.0497-0.42407-2.4031-0.63611-0.35339-3.746-0.35339-3.746-0.35339l-0.9188 0.4948z" filter="url(#am)" opacity=".953"/>
     <path d="m1013.1 165.79s1.9083-0.14136 2.191 0.98953c0.28272 1.1309-0.63611 2.4738 1.767 4.6649 0.70679-0.35339 0.77747-1.0602 0.77747-1.0602l1.8377 0.7775s-1.4843-2.1911-1.4843-3.1099c0-0.91884 0.21204-2.0497-0.42407-2.4031-0.63611-0.35339-3.746-0.35339-3.746-0.35339l-0.9188 0.4948z" fill="url(#aa)"/>
    </g>
    <path d="m229.46 162.27s-29.064 14.532-42.477 19.003c-13.415 4.4713-87.192-1.1178-87.192-1.1178l38.007 12.296-10.06 22.357s55.73 0.54419 76.013-2.2356c29.921-4.1013 39.124-27.946 80.484-29.064 24.811-0.67064 38.008 2.2356 38.008 2.2356s-33.535-26.828-92.782-23.475z" filter="url(#al)"/>
   </g>
   <path d="m200.24 31.807s-17.426-9.957-24.064-9.957c-6.6374 0-30.7 9.1274-33.19 21.573-2.4895 12.446-5.8092 38.169 5.8092 53.104 11.616 14.936 29.04 30.701 29.04 30.701s-26.298-50.069-14.934-73.018c12.459-25.161 38.167-22.403 37.339-22.403z" fill="url(#z)" filter="url(#ag)"/>
   <g stroke-width=".2">
    <path d="m212.03 0.1784c-29.762 2.0892-61.202 23.056-71.663 41.021-13.948 23.953 8.0184 67.132 40.304 92.088 44.245 34.2 110.44 35.473 110.44 35.473 0-1.0316 43.236 11.951 25.7-38.599-25.178-72.576-42.191-108.02-76.112-125.04-8.6858-4.3589-18.744-5.6387-28.666-4.9423zm-41.615 28.341c30.182-9.4105 49.033 31.589 62.373 48.265 16.42 20.524 57.826 81.054 57.826 81.054l8.4012 10.873s-4.5754 0.072754-50.412-10.873c-45.835-10.946-78.797-41.999-80.165-44.736-27.31-32.413-35.348-72.428 1.9769-84.583z" fill="url(#k)"/>
    <path d="m233.49 158.64s-29.064 14.532-42.479 19.003c-13.413 4.4713-87.19-1.1178-87.19-1.1178l38.006 12.296-10.06 22.357s55.73 0.54422 76.012-2.2356c29.923-4.1013 39.124-27.946 80.485-29.064 24.811-0.67055 38.006 2.2357 38.006 2.2357s-33.535-26.828-92.78-23.474z" fill="url(#q)"/>
    <path d="m379.3 156.31s-48.487-22.696-59.835-22.696c-11.347 0-29.916 21.664-24.759 35.075 5.1586 13.411 45.392 22.696 57.77 22.696 11.024-2.8274 21.047-6.3227 31.98-11.348 0-7.2212-5.1566-23.727-5.1566-23.727z" filter="url(#aj)"/>
   </g>
   <path d="m252.6 87.046l43.99 69.284 21.995-16.496s-21.995-49.488-34.092-71.483c-12.098-21.995-20.896-31.893-20.896-31.893s18.697 46.19 14.297 54.987c-4.3979 8.798-23.095-4.3991-25.294-4.3991z" fill="url(#y)" filter="url(#ai)"/>
   <g stroke-width=".2">
    <path d="m377.81 155.08c-4.8854-4.128-49.561-24.038-60.908-24.038-11.348 0-29.916 21.664-24.759 35.075 5.159 13.411 45.392 22.696 57.771 22.696 11.023-2.8273 21.047-6.3228 31.98-11.348 0-7.2213 2.1477-15.291-4.0836-22.386z" fill="url(#l)"/>
    <path d="m359.25 188.38s35.532 13.026 57.424 16.446c21.892 3.4206 66.401 10.918 77.347 6.8136 10.946-4.1046 70.464-16.419 78.674-29.417 8.2098-12.998-43.783-15.051-43.783-15.051s-29.418 18.471-49.942 19.839c-20.522 1.3684-80.725-12.998-80.725-12.998l-38.311 10.262-0.6832 4.1047z" fill="url(#r)"/>
   </g>
   <path d="m311.46 133.91s5.4993-2.5776 10.198-1.0734c6.7069 2.1468 12.088 2.9558 26.567 9.1242 15.615 6.6516 26.154 11.883 27.227 12.688 8.8189 7.5766 2.8158 15.601 3.0966 24.346-5.367 2.6838-22.005 8.0508-24.42 8.5875-11.173-10.312 1.3031-27.789 16.635-29.101-2.0281-3.393-19.068-11.612-23.102-13.49-13.098-5.209-27.613-10.276-27.613-10.276s-13.408-1.6606-19.323 9.6612c1.3427-5.6356 11.272-11.003 10.735-10.466z" fill="url(#x)" filter="url(#ah)"/>
   <g transform="matrix(15.815 0 0 15.815 -15731 -2436.6)" stroke-width=".2">
    <path d="m1017.7 165.67l2.1196-0.5191s3.4604-2.9414 3.8497-3.1145c1.9939-1.6435 4.4821-2.2504 6.5317-1.514 0 0-0.21631-2.6386-0.90845-2.9847-0.69202-0.34605-2.5953-0.60559-2.5953-0.60559s-2.5745 1.7264-2.8772 2.0291c-0.30286 0.30281-4.7064 4.6314-4.7064 4.6314l-1.3773 1.6192-0.2755 0.5651 0.239-0.1071z" fill="url(#w)"/>
    <path d="m1028.5 156.11c-3.3739 0.21628-9.9919 8.0562-10.381 8.4887-0.38928 0.43257-0.97797 1.3653-0.93481 1.322 0 0 4.2136 1.8743 7.8472 1.658 3.6335-0.21628 8.1798-2.4104 8.6545-5.5397 0.54578-3.597-1.8118-6.1453-5.1858-5.929zm-2.2982 1.4924c1.1399-0.20796 3.5795-0.22584 3.1421 3.4138-0.27087 2.2534-1.8882 5.827-5.2189 6-3.3308 0.17302-6.5859-1.2675-6.5428-1.3108 0 1.5e-5 5.2952-5.61 5.5117-5.783 0.21619-0.17304 1.8037-2.0023 3.1079-2.3201z" fill="url(#v)"/>
   </g>
   <path d="m139.22 49.768c-2.336-12.823 23.201-31.72 44.773-40.017 21.573-8.2974 48.492-5.6349 48.492-5.6349s-23.643 10.613-33.428 17.772c-19.715-2.004-37.795 6.446-37.795 6.446s-11.374 4.3866-22.042 21.435z" fill="url(#u)" filter="url(#e)" opacity=".558"/>
   <path d="m486.97 56.864c16.859-14.596 25.414-20.852 52.493-22.55 23.07-1.4455 55.473 23.57 55.473 23.57s-24.765 16.635-35.9 21.428c-7.2418-16.815-34.225-27.598-34.225-27.598s-15.76-5.9367-37.84 5.1494z" fill="url(#t)" filter="url(#e)" opacity=".558"/>
   <path d="m551.28 66.275s11.288 27.788 5.2107 51.235c-6.0795 23.446-16.501 37.341-16.501 37.341s32.131 6.0787 47.763-0.86853c15.63-6.9468 24.314-19.973 24.314-19.973s6.9462-39.077-2.6063-57.313c-9.5507-18.236-20.839-22.578-20.839-22.578s-23.447 0-37.342 12.157z" fill="url(#s)" filter="url(#af)"/>
  </g>
 </g>
</svg>
